<svg width="205" height="206" viewBox="0 0 205 206" fill="none" xmlns="http://www.w3.org/2000/svg">
<path d="M199.233 80.8463H184.241C183.05 80.8481 181.887 80.4775 180.915 79.7859C179.942 79.0944 179.207 78.1159 178.813 76.9863C177.665 73.6756 176.307 70.4421 174.749 67.3055C174.21 66.2206 174.026 64.9927 174.222 63.7964C174.418 62.6002 174.984 61.4964 175.84 60.642L186.496 49.9361C187.578 48.8473 188.186 47.3712 188.186 45.8322C188.186 44.2932 187.578 42.8171 186.496 41.7283L163.476 18.6094C162.393 17.5217 160.924 16.9107 159.392 16.9107C157.86 16.9107 156.391 17.5217 155.308 18.6094L144.461 29.5084C143.616 30.3604 142.528 30.926 141.348 31.1262C140.168 31.3265 138.956 31.1513 137.88 30.6253C134.818 29.1226 131.664 27.8165 128.438 26.7146C127.301 26.3254 126.315 25.588 125.617 24.6061C124.918 23.6241 124.544 22.447 124.546 21.2402V5.80025C124.546 5.03851 124.397 4.28418 124.107 3.5804C123.817 2.87662 123.392 2.23717 122.856 1.69853C122.32 1.1599 121.683 0.732663 120.983 0.441223C120.283 0.149784 119.532 -0.000141658 118.774 1.00433e-07H86.2327C85.4746 -0.000141658 84.7239 0.149784 84.0235 0.441223C83.3231 0.732663 82.6866 1.1599 82.1506 1.69853C81.6145 2.23717 81.1893 2.87662 80.8993 3.5804C80.6092 4.28418 80.46 5.03851 80.4602 5.80025V21.2402C80.4623 22.447 80.0881 23.6241 79.3899 24.6061C78.6918 25.588 77.705 26.3254 76.5681 26.7146C73.3417 27.8166 70.188 29.1228 67.1258 30.6253C66.0497 31.1516 64.8367 31.3269 63.6566 31.1266C62.4764 30.9264 61.388 30.3606 60.5435 29.5084L49.6965 18.6094C48.6129 17.5217 47.1439 16.9107 45.6122 16.9107C44.0806 16.9107 42.6116 17.5217 41.528 18.6094L18.5097 41.7283C17.4272 42.8171 16.8192 44.2932 16.8192 45.8322C16.8192 47.3712 17.4272 48.8473 18.5097 49.9361L29.1645 60.642C30.0207 61.4963 30.5871 62.6 30.7832 63.7963C30.9792 64.9926 30.795 66.2205 30.2567 67.3055C28.6972 70.4404 27.3429 73.6742 26.2025 76.9863C25.8045 78.1158 25.0678 79.0935 24.0938 79.7848C23.1198 80.4761 21.9565 80.8469 20.764 80.8463H5.77255C5.01446 80.8458 4.26371 80.9956 3.56324 81.2868C2.86276 81.5781 2.22628 82.0052 1.69018 82.5438C1.15408 83.0824 0.728866 83.7218 0.438856 84.4256C0.148845 85.1294 -0.000281456 85.8837 9.00219e-07 86.6455V119.353C-0.000422625 120.115 0.1486 120.87 0.438547 121.574C0.728495 122.278 1.15368 122.917 1.6898 123.456C2.22591 123.994 2.86244 124.422 3.56299 124.713C4.26354 125.004 5.01437 125.154 5.77255 125.154H20.3698C21.5838 125.153 22.767 125.538 23.7506 126.253C24.7342 126.968 25.4679 127.977 25.847 129.136C26.9731 132.536 28.3206 135.858 29.8808 139.081C30.41 140.166 30.5892 141.39 30.3935 142.583C30.1977 143.775 29.6367 144.877 28.7886 145.734L18.5076 156.064C17.9711 156.602 17.5456 157.241 17.2552 157.945C16.9648 158.649 16.8154 159.403 16.8154 160.165C16.8154 160.926 16.9648 161.68 17.2552 162.384C17.5456 163.088 17.9711 163.727 18.5076 164.265L41.5258 187.394C42.6094 188.482 44.0784 189.092 45.6101 189.092C47.1418 189.092 48.6108 188.482 49.6944 187.394L59.7735 177.266C60.6322 176.405 61.7388 175.838 62.9364 175.644C64.134 175.451 65.3619 175.641 66.446 176.187C69.7063 177.824 73.0738 179.236 76.5252 180.412C77.6694 180.801 78.6637 181.54 79.3688 182.526C80.0739 183.512 80.4544 184.694 80.4569 185.908V200.19C80.4558 200.952 80.6043 201.708 80.8939 202.413C81.1834 203.117 81.6084 203.758 82.1446 204.297C82.6807 204.837 83.3174 205.265 84.0184 205.557C84.7193 205.849 85.4706 206 86.2295 206H118.771C119.529 206 120.281 205.849 120.982 205.557C121.683 205.265 122.319 204.837 122.855 204.297C123.392 203.758 123.817 203.117 124.106 202.413C124.396 201.708 124.544 200.952 124.543 200.19V185.908C124.545 184.694 124.926 183.511 125.631 182.526C126.336 181.54 127.33 180.801 128.475 180.412C131.926 179.235 135.294 177.824 138.554 176.187C139.638 175.641 140.866 175.451 142.064 175.644C143.261 175.838 144.368 176.405 145.227 177.266L155.305 187.394C156.388 188.482 157.857 189.092 159.389 189.092C160.921 189.092 162.39 188.482 163.473 187.394L186.492 164.265C187.029 163.727 187.454 163.088 187.745 162.384C188.035 161.68 188.185 160.926 188.185 160.165C188.185 159.403 188.035 158.649 187.745 157.945C187.454 157.241 187.029 156.602 186.492 156.064L176.211 145.734C175.363 144.877 174.802 143.775 174.607 142.583C174.411 141.39 174.59 140.166 175.119 139.081C176.679 135.858 178.026 132.536 179.153 129.136C179.532 127.977 180.266 126.968 181.249 126.253C182.233 125.538 183.416 125.153 184.63 125.154H199.227C199.986 125.154 200.736 125.004 201.437 124.713C202.138 124.422 202.774 123.994 203.31 123.456C203.846 122.917 204.272 122.278 204.561 121.574C204.851 120.87 205 120.115 205 119.353V86.6455C205 85.8842 204.851 85.1303 204.562 84.4269C204.272 83.7234 203.847 83.0842 203.312 82.5457C202.776 82.0072 202.14 81.58 201.44 81.2884C200.741 80.9968 199.99 80.8465 199.233 80.8463ZM102.503 151.331C92.9889 151.331 83.6881 148.496 75.7772 143.185C67.8662 137.874 61.7003 130.325 58.0592 121.493C54.4181 112.661 53.4654 102.942 55.3215 93.5656C57.1776 84.1892 61.7592 75.5765 68.4868 68.8166C75.2145 62.0567 83.7861 57.4531 93.1176 55.5881C102.449 53.7231 112.122 54.6804 120.912 58.3389C129.702 61.9975 137.215 68.193 142.5 76.1419C147.786 84.0908 150.607 93.4362 150.607 102.996C150.606 115.815 145.538 128.109 136.517 137.173C127.496 146.238 115.261 151.33 102.503 151.331Z" fill="#4E8CFF" fill-opacity="0.25"/>
</svg>
