<svg width="71" height="71" viewBox="0 0 71 71" fill="none" xmlns="http://www.w3.org/2000/svg">
<g id="&#208;&#155;&#208;&#190;&#208;&#179;&#208;&#190;)">
<g id="Ellipse 45" filter="url(#filter0_f_274_881)">
<ellipse cx="33" cy="36" rx="27" ry="30" fill="#FF6690" fill-opacity="0.26"/>
</g>
<circle id="Ellipse 44" cx="35.5" cy="35.5" r="35.5" fill="white"/>
<path id="CRM" d="M19.36 42.24C18.28 42.24 17.2733 42.0667 16.34 41.72C15.42 41.36 14.62 40.8533 13.94 40.2C13.26 39.5467 12.7267 38.78 12.34 37.9C11.9667 37.02 11.78 36.0533 11.78 35C11.78 33.9467 11.9667 32.98 12.34 32.1C12.7267 31.22 13.26 30.4533 13.94 29.8C14.6333 29.1467 15.44 28.6467 16.36 28.3C17.28 27.94 18.2867 27.76 19.38 27.76C20.5933 27.76 21.6867 27.9733 22.66 28.4C23.6467 28.8133 24.4733 29.4267 25.14 30.24L23.06 32.16C22.58 31.6133 22.0467 31.2067 21.46 30.94C20.8733 30.66 20.2333 30.52 19.54 30.52C18.8867 30.52 18.2867 30.6267 17.74 30.84C17.1933 31.0533 16.72 31.36 16.32 31.76C15.92 32.16 15.6067 32.6333 15.38 33.18C15.1667 33.7267 15.06 34.3333 15.06 35C15.06 35.6667 15.1667 36.2733 15.38 36.82C15.6067 37.3667 15.92 37.84 16.32 38.24C16.72 38.64 17.1933 38.9467 17.74 39.16C18.2867 39.3733 18.8867 39.48 19.54 39.48C20.2333 39.48 20.8733 39.3467 21.46 39.08C22.0467 38.8 22.58 38.38 23.06 37.82L25.14 39.74C24.4733 40.5533 23.6467 41.1733 22.66 41.6C21.6867 42.0267 20.5867 42.24 19.36 42.24ZM27.328 42V28H33.388C34.6413 28 35.7213 28.2067 36.628 28.62C37.5346 29.02 38.2346 29.6 38.728 30.36C39.2213 31.12 39.468 32.0267 39.468 33.08C39.468 34.12 39.2213 35.02 38.728 35.78C38.2346 36.5267 37.5346 37.1 36.628 37.5C35.7213 37.9 34.6413 38.1 33.388 38.1H29.128L30.568 36.68V42H27.328ZM36.228 42L32.728 36.92H36.188L39.728 42H36.228ZM30.568 37.04L29.128 35.52H33.208C34.208 35.52 34.9546 35.3067 35.448 34.88C35.9413 34.44 36.188 33.84 36.188 33.08C36.188 32.3067 35.9413 31.7067 35.448 31.28C34.9546 30.8533 34.208 30.64 33.208 30.64H29.128L30.568 29.1V37.04ZM42.035 42V28H44.715L50.675 37.88H49.255L55.115 28H57.775L57.815 42H54.775L54.755 32.66H55.315L50.635 40.52H49.175L44.395 32.66H45.075V42H42.035Z" fill="#FD5D5B"/>
</g>
<defs>
<filter id="filter0_f_274_881" x="-14" y="-14" width="94" height="100" filterUnits="userSpaceOnUse" color-interpolation-filters="sRGB">
<feFlood flood-opacity="0" result="BackgroundImageFix"/>
<feBlend mode="normal" in="SourceGraphic" in2="BackgroundImageFix" result="shape"/>
<feGaussianBlur stdDeviation="10" result="effect1_foregroundBlur_274_881"/>
</filter>
</defs>
</svg>
